HIERARCHY
ROOT Hips
{
	OFFSET 0.000000 0.000000 0.000000
	CHANNELS 6 Xposition Yposition Zposition Xrotation Yrotation Zrotation
	JOINT LeftUpLeg_virtual
	{
		OFFSET 0.000000 0.000000 0.000000
		CHANNELS 3 Xrotation Yrotation Zrotation
		JOINT LeftUpLeg
		{
			OFFSET 13.026900 -6.336304 -1.092800
			CHANNELS 3 Xrotation Yrotation Zrotation
			JOINT LeftLeg
			{
				OFFSET 0.524474 -46.096886 9.782700
				CHANNELS 3 Xrotation Yrotation Zrotation
				JOINT LeftFoot
				{
					OFFSET -0.524474 -53.427422 -12.948200
					CHANNELS 3 Xrotation Yrotation Zrotation
					JOINT LeftToeBase
					{
						OFFSET 0.192200 -14.009700 16.364100
						CHANNELS 3 Xrotation Yrotation Zrotation
						JOINT LeftToe_End
						{
							OFFSET -1.784700 -0.561700 9.474800
							CHANNELS 3 Xrotation Yrotation Zrotation
							End Site
							{
								OFFSET 0 0 0
							}
						}
					}
				}
			}
		}
	}
	JOINT RightUpLeg_virtual
	{
		OFFSET 0.000000 0.000000 0.000000
		CHANNELS 3 Xrotation Yrotation Zrotation
		JOINT RightUpLeg
		{
			OFFSET -12.883000 -6.336304 -1.092800
			CHANNELS 3 Xrotation Yrotation Zrotation
			JOINT RightLeg
			{
				OFFSET -0.524587 -46.096825 9.782800
				CHANNELS 3 Xrotation Yrotation Zrotation
				JOINT RightFoot
				{
					OFFSET 0.524587 -53.427383 -12.948300
					CHANNELS 3 Xrotation Yrotation Zrotation
					JOINT RightToeBase
					{
						OFFSET -0.192200 -14.009700 16.364100
						CHANNELS 3 Xrotation Yrotation Zrotation
						JOINT RightToe_End
						{
							OFFSET 1.784700 -0.561700 9.474800
							CHANNELS 3 Xrotation Yrotation Zrotation
							End Site
							{
								OFFSET 0 0 0
							}
						}
					}
				}
			}
		}
	}
	JOINT Spine_virtual
	{
		OFFSET 0.000000 0.000000 0.000000
		CHANNELS 3 Xrotation Yrotation Zrotation
		JOINT Spine
		{
			OFFSET 0.072000 7.257294 -0.789700
			CHANNELS 3 Xrotation Yrotation Zrotation
			JOINT Spine1
			{
				OFFSET 0.000000 12.508769 -0.658067
				CHANNELS 3 Xrotation Yrotation Zrotation
				JOINT Spine1_split
				{
					OFFSET 0.000000 12.508769 -0.658067
					CHANNELS 3 Xrotation Yrotation Zrotation
					JOINT Spine2
					{
						OFFSET 0.000000 12.508769 -0.658067
						CHANNELS 3 Xrotation Yrotation Zrotation
						JOINT Neck_virtual
						{
							OFFSET 0.000000 0.000000 0.000000
							CHANNELS 3 Xrotation Yrotation Zrotation
							JOINT Neck
							{
								OFFSET 0.000000 14.033295 7.520400
								CHANNELS 3 Xrotation Yrotation Zrotation
								JOINT Head
								{
									OFFSET 0.000000 8.198502 5.703100
									CHANNELS 3 Xrotation Yrotation Zrotation
									JOINT HeadTop_End
									{
										OFFSET 0.000000 17.760803 13.332701
										CHANNELS 3 Xrotation Yrotation Zrotation
										End Site
										{
											OFFSET 0 0 0
										}
									}
								}
							}
						}
						JOINT LeftShoulder_virtual
						{
							OFFSET 0.000000 0.000000 0.000000
							CHANNELS 3 Xrotation Yrotation Zrotation
							JOINT LeftShoulder
							{
								OFFSET 6.292450 5.785301 -0.669000
								CHANNELS 3 Xrotation Yrotation Zrotation
								JOINT LeftShoulder_split
								{
									OFFSET 6.292450 5.785301 -0.669000
									CHANNELS 3 Xrotation Yrotation Zrotation
									JOINT LeftArm
									{
										OFFSET 13.907140 -6.093903 1.965100
										CHANNELS 3 Xrotation Yrotation Zrotation
										JOINT LeftForeArm
										{
											OFFSET 34.140198 0.000000 0.000000
											CHANNELS 3 Xrotation Yrotation Zrotation
											JOINT LeftHand
											{
												OFFSET 40.960209 0.000000 0.000000
												CHANNELS 3 Xrotation Yrotation Zrotation
												End Site
												{
													OFFSET 0 0 0
												}
											}
										}
									}
								}
							}
						}
						JOINT RightShoulder_virtual
						{
							OFFSET 0.000000 0.000000 0.000000
							CHANNELS 3 Xrotation Yrotation Zrotation
							JOINT RightShoulder
							{
								OFFSET -6.292450 5.785301 -0.669000
								CHANNELS 3 Xrotation Yrotation Zrotation
								JOINT RightShoulder_split
								{
									OFFSET -6.292450 5.785301 -0.669000
									CHANNELS 3 Xrotation Yrotation Zrotation
									JOINT RightArm
									{
										OFFSET -13.907140 -6.093903 1.965100
										CHANNELS 3 Xrotation Yrotation Zrotation
										JOINT RightForeArm
										{
											OFFSET -34.140198 0.000000 0.000000
											CHANNELS 3 Xrotation Yrotation Zrotation
											JOINT RightHand
											{
												OFFSET -40.960209 0.000000 0.000000
												CHANNELS 3 Xrotation Yrotation Zrotation
												End Site
												{
													OFFSET 0 0 0
												}
											}
										}
									}
								}
							}
						}
					}
				}
			}
		}
	}
}
MOTION
Frames: 11
Frame Time: 0.03333333
1.754980 90.086021 -10.250881 0.000000 0.000000 0.000000 0.004872 -38.578937 4.480385 -35.723611 5.691761 19.625804 54.827359 -12.557919 5.073469 -14.833665 -9.057154 -15.946591 -0.287935 -2.316769 -0.992933 0.000000 0.000000 0.000000 0.000527 -36.883086 4.438837 -21.414487 -15.513680 -24.549097 55.932364 13.004433 -8.813206 -24.073249 -25.484240 34.480325 2.596493 9.748324 -12.424419 0.000000 0.000000 0.000000 -1.708617 -34.287591 2.708840 3.214229 6.307361 -1.659131 1.450067 -0.461032 -0.756579 0.035045 -0.053931 0.130046 0.000000 0.000000 0.000000 5.931318 1.943321 0.699246 3.393808 17.078579 -2.243048 -15.698831 6.302958 -27.590018 0.000000 0.000000 0.000000 3.467172 -0.208867 -1.109188 0.990603 9.547037 -5.967932 3.568536 -6.825671 6.290663 -59.045496 4.705129 -56.797131 133.761414 -74.812974 129.395229 0.000000 0.000000 0.000000 3.301120 -0.639908 1.055752 -6.854229 -0.415295 -8.593216 -6.801763 -1.750412 -0.398637 -43.617899 27.585778 94.709473 -146.771353 72.256079 145.350168 0.000000 0.000000 0.000000 
1.759568 90.389328 -9.064877 0.000000 0.000000 0.000000 -0.065784 -39.055968 4.621153 -35.740331 6.711342 19.745324 53.832921 -12.793999 4.965522 -14.291290 -9.210613 -16.082655 -1.027910 -2.282741 -0.741913 0.000000 0.000000 0.000000 -0.003767 -37.647040 4.473613 -22.590128 -16.537153 -25.457042 56.012933 13.071557 -8.305019 -23.923813 -24.269272 31.502004 4.700025 9.625011 -12.263854 0.000000 0.000000 0.000000 -1.106005 -33.867691 3.153154 3.537478 6.430838 -1.952787 1.463800 -0.356411 -0.734756 0.103755 -0.072198 0.115121 0.000000 0.000000 0.000000 5.974022 2.070903 0.553657 3.333469 16.995556 -2.247608 -15.625805 6.431136 -27.366336 0.000000 0.000000 0.000000 3.730129 -0.202926 -0.991555 0.806412 8.242812 -5.272610 3.749355 -6.102229 5.550177 -60.059923 5.526493 -56.217590 130.208869 -75.306059 125.936257 0.000000 0.000000 0.000000 3.472409 -0.538559 1.031664 -6.757729 0.188813 -8.490224 -6.378604 -1.014951 0.138193 -43.923352 27.955548 94.912117 -146.741533 72.589017 145.450053 0.000000 0.000000 0.000000 
1.629150 91.253593 -7.806080 0.000000 0.000000 0.000000 0.403235 -39.120479 5.229111 -35.728955 7.887426 19.562316 52.234609 -12.973192 4.895882 -13.446289 -9.636490 -15.965383 -1.929251 -2.201382 -0.432838 0.000000 0.000000 0.000000 0.476921 -38.161025 5.028160 -25.579786 -16.564098 -27.272254 57.376348 13.744896 -7.941600 -19.716900 -21.515482 30.852002 0.773031 9.899999 -11.094377 0.000000 0.000000 0.000000 -0.458576 -32.681164 3.875606 3.979994 6.630001 -2.443350 1.410853 -0.177942 -0.752282 0.103493 -0.185368 0.101575 0.000000 0.000000 0.000000 6.025565 2.256360 0.418533 3.196053 16.887381 -1.950048 -15.789813 6.050288 -27.185070 0.000000 0.000000 0.000000 3.897395 -0.090153 -0.827723 0.620066 6.616438 -4.240396 4.293932 -5.551336 4.139122 -62.597461 6.440957 -54.381594 129.913135 -75.329111 125.776854 0.000000 0.000000 0.000000 3.532938 -0.442462 0.939501 -6.637074 1.188845 -8.520809 -5.837845 -1.413189 0.379984 -45.241957 28.078979 94.976786 -145.224247 73.470699 144.098249 0.000000 0.000000 0.000000 
1.306690 92.569557 -6.781708 0.000000 0.000000 0.000000 1.313276 -38.340601 6.056781 -35.593574 8.856717 19.045124 50.120294 -12.777687 4.753345 -12.762401 -9.954137 -15.533696 -1.699755 -2.040224 -0.403717 0.000000 0.000000 0.000000 1.509499 -37.738530 5.978612 -28.933392 -15.540490 -29.203700 59.000485 14.701057 -7.811932 -14.537310 -18.417842 30.528982 -6.364559 10.042362 -9.167511 0.000000 0.000000 0.000000 0.365834 -31.019389 4.764565 4.313874 6.831997 -3.001316 1.292429 0.000137 -0.759505 0.020520 -0.343123 0.128525 0.000000 0.000000 0.000000 6.078765 2.445743 0.371431 3.063790 16.812461 -1.433255 -16.274900 5.275257 -27.070294 0.000000 0.000000 0.000000 3.953388 0.078973 -0.580103 0.499184 4.952594 -3.046769 5.077797 -5.359627 2.438634 -66.215426 7.170667 -51.438185 132.775995 -75.025817 128.829853 0.000000 0.000000 0.000000 3.445881 -0.410789 0.837668 -6.474849 2.472543 -8.802636 -5.543003 -2.734565 0.284909 -47.581171 27.710238 95.023545 -141.727395 74.845213 140.727729 0.000000 0.000000 0.000000 
0.710513 94.171036 -6.112328 0.000000 0.000000 0.000000 2.304232 -36.617959 6.753797 -35.505591 9.274366 18.341404 47.564997 -12.116537 4.481191 -12.225596 -10.118318 -14.965501 -0.203932 -1.828789 -0.711066 0.000000 0.000000 0.000000 2.620262 -36.557368 6.891983 -31.739131 -13.919793 -30.518238 60.161461 15.091853 -7.654969 -10.764844 -16.451882 28.525247 -11.332688 9.571199 -7.238386 0.000000 0.000000 0.000000 1.487518 -29.061167 5.640137 4.424996 6.974717 -3.491166 1.129903 0.089181 -0.706548 -0.027714 -0.468746 0.147432 0.000000 0.000000 0.000000 6.113129 2.558153 0.462330 3.093287 16.784847 -0.835228 -17.014773 4.352833 -26.973283 0.000000 0.000000 0.000000 3.929623 0.226826 -0.241950 0.512233 3.596824 -1.945322 5.508236 -5.379869 1.060393 -70.386015 7.438169 -47.894888 137.434758 -74.512159 133.724353 0.000000 0.000000 0.000000 3.230485 -0.500353 0.793786 -6.244571 3.938179 -9.313206 -5.555963 -4.014764 0.010276 -50.816696 26.555723 95.156194 -135.897255 76.349063 134.948146 0.000000 0.000000 0.000000 
-0.173320 95.850739 -5.611843 0.000000 0.000000 0.000000 3.115918 -34.339947 7.112646 -35.494615 8.864758 17.791014 44.894902 -11.649352 4.284053 -11.109107 -10.421752 -15.168628 1.041394 -1.631390 -0.957375 0.000000 0.000000 0.000000 3.242556 -34.912498 7.368723 -33.529880 -12.412485 -30.968235 60.679838 14.706963 -7.135251 -8.622164 -16.347228 25.368125 -11.767157 8.652832 -5.836392 0.000000 0.000000 0.000000 2.713610 -27.001620 6.313229 4.268053 7.017533 -3.792499 0.996214 0.004129 -0.595172 0.011630 -0.509977 0.145090 0.000000 0.000000 0.000000 6.115046 2.531889 0.685124 3.385716 16.867075 -0.287618 -17.809964 3.567006 -26.823353 0.000000 0.000000 0.000000 3.848291 0.283891 0.140115 0.658790 2.743210 -1.187387 5.557707 -5.625370 0.112591 -74.252175 7.045840 -44.475272 142.353396 -73.986385 138.947754 0.000000 0.000000 0.000000 2.972373 -0.709565 0.832228 -5.936480 5.448808 -9.968302 -5.660147 -4.695570 -0.279386 -54.540816 24.489869 95.462904 -127.801623 77.602929 126.857213 0.000000 0.000000 0.000000 
-1.338701 97.175308 -5.223854 0.000000 0.000000 0.000000 3.649866 -31.884136 7.043374 -35.671534 7.993270 17.718808 42.660969 -11.402873 4.078977 -9.284163 -10.877452 -15.994720 1.128487 -1.480141 -0.972159 0.000000 0.000000 0.000000 3.423353 -32.898685 7.342125 -34.263180 -11.506894 -30.727488 60.242248 14.033571 -6.454466 -7.710360 -17.668070 23.173409 -10.190430 7.783356 -5.158198 0.000000 0.000000 0.000000 3.876254 -25.006854 6.671935 3.908227 6.990664 -3.847496 0.937208 -0.240186 -0.482710 0.083517 -0.494542 0.122097 0.000000 0.000000 0.000000 6.068218 2.353147 0.990905 3.980951 17.032827 0.110508 -18.440515 2.990447 -26.536287 0.000000 0.000000 0.000000 3.768416 0.213419 0.467730 0.927028 2.476039 -0.890949 5.345804 -6.027539 -0.293007 -77.148599 6.091377 -41.892655 145.958206 -73.722398 142.870905 0.000000 0.000000 0.000000 2.723161 -1.025685 0.902989 -5.587384 6.897946 -10.514840 -5.959226 -4.916505 -0.443594 -58.098819 21.732593 95.706468 -118.031980 78.342133 117.156445 0.000000 0.000000 0.000000 
-2.803830 97.828629 -5.188736 0.000000 0.000000 0.000000 3.804427 -29.499519 6.648559 -36.008054 7.214353 18.216558 41.279351 -11.048371 3.816238 -7.289659 -11.096631 -16.699924 0.465292 -1.381213 -0.895222 0.000000 0.000000 0.000000 3.266198 -30.915116 6.900166 -33.753022 -11.183934 -29.872949 58.291184 13.482428 -6.039503 -7.924533 -19.775143 23.060279 -8.864652 7.261773 -5.394130 0.000000 0.000000 0.000000 4.735469 -23.494089 6.683744 3.527815 6.903148 -3.713029 0.937280 -0.582077 -0.453418 0.136515 -0.460693 0.085048 0.000000 0.000000 0.000000 5.993628 2.053149 1.257175 4.851776 17.249219 0.312129 -18.879824 2.610060 -26.068013 0.000000 0.000000 0.000000 3.696843 0.050649 0.624262 1.270362 2.760987 -1.137539 4.825271 -6.468407 -0.197379 -78.582542 4.768400 -40.674678 147.653213 -73.893153 144.872902 0.000000 0.000000 0.000000 2.534133 -1.380856 0.925953 -5.288124 8.085864 -10.732335 -5.923204 -5.060513 -0.407333 -60.929030 18.842890 95.633269 -107.702398 78.533665 107.019775 0.000000 0.000000 0.000000 
-4.510796 97.581917 -5.305000 0.000000 0.000000 0.000000 3.610570 -27.585051 6.187235 -36.101484 6.710498 19.128448 40.977180 -10.550208 3.635452 -6.260095 -10.528549 -17.022901 0.117775 -1.329105 -0.929711 0.000000 0.000000 0.000000 3.066552 -29.108501 6.405385 -32.129432 -11.139554 -28.759072 55.519941 13.216216 -6.089195 -9.396290 -22.219246 24.095593 -6.341633 7.111432 -6.431545 0.000000 0.000000 0.000000 5.003575 -22.599378 6.461697 3.257817 6.781254 -3.518137 0.992618 -0.927994 -0.582775 0.134792 -0.463820 0.067217 0.000000 0.000000 0.000000 5.911563 1.719063 1.369176 5.856388 17.502445 0.304821 -19.199474 2.384025 -25.475521 0.000000 0.000000 0.000000 3.634014 -0.136513 0.517396 1.612384 3.476180 -1.859540 4.482575 -7.171180 0.149590 -78.576969 3.378477 -40.731362 147.098533 -74.606115 144.606948 0.000000 0.000000 0.000000 2.419178 -1.680599 0.831725 -5.067288 8.888652 -10.578603 -5.688734 -5.289555 -0.345153 -62.523244 16.610837 95.063959 -96.648625 78.362822 96.306227 0.000000 0.000000 0.000000 
-6.421476 96.361618 -5.595924 0.000000 0.000000 0.000000 3.178532 -26.449568 5.916651 -35.728808 6.493305 20.261249 41.650593 -10.030280 3.569989 -6.971199 -9.097050 -17.238622 0.837180 -1.288993 -1.169025 0.000000 0.000000 0.000000 2.774889 -27.878090 6.129982 -30.546375 -10.892211 -27.996524 53.166309 13.202003 -6.589299 -11.691248 -24.628313 25.667380 -1.829193 7.144453 -7.946420 0.000000 0.000000 0.000000 4.580000 -22.182344 6.141891 3.186197 6.661636 -3.391113 1.066094 -1.184911 -0.873809 0.108553 -0.512967 0.077542 0.000000 0.000000 0.000000 5.863995 1.449094 1.277151 6.809345 17.770957 0.131773 -19.502558 2.311326 -24.823252 0.000000 0.000000 0.000000 3.605337 -0.284783 0.155157 1.917870 4.510868 -2.868725 4.413376 -8.055783 0.644988 -77.790520 2.116646 -41.663621 144.204759 -75.624025 141.891320 0.000000 0.000000 0.000000 2.386174 -1.881134 0.603598 -4.932934 9.295656 -10.112323 -5.462652 -5.704323 -0.313806 -62.784499 15.668135 93.967939 -84.404951 77.823380 84.500321 0.000000 0.000000 0.000000 
-8.475012 94.426552 -6.232189 0.000000 0.000000 0.000000 2.421540 -26.279238 5.997849 -34.900122 6.371884 21.582833 42.780221 -10.241608 3.760232 -8.645644 -7.486361 -18.678312 1.837292 -1.233757 -1.275967 0.000000 0.000000 0.000000 2.247184 -27.488008 6.187141 -30.142516 -10.049414 -28.151945 52.545431 13.590592 -7.417895 -12.887379 -26.357398 28.909588 2.203122 7.283595 -9.593130 0.000000 0.000000 0.000000 3.537539 -22.208843 5.821029 3.354263 6.513215 -3.413017 1.141177 -1.309070 -1.268887 0.112067 -0.586117 0.115725 0.000000 0.000000 0.000000 5.908291 1.283115 1.018728 7.562871 18.064880 -0.202287 -19.767235 2.442196 -24.226471 0.000000 0.000000 0.000000 3.583412 -0.374960 -0.372880 2.149216 5.685435 -3.968430 4.499929 -8.921129 1.201590 -76.858882 1.052870 -42.921776 140.004535 -76.522632 137.763304 0.000000 0.000000 0.000000 2.456051 -1.975290 0.280449 -4.857790 9.265889 -9.633539 -5.403156 -6.130338 -0.295792 -61.989964 16.130284 92.476021 -72.365287 76.841650 72.881110 0.000000 0.000000 0.000000 
